<svg width="96" height="96" viewBox="0 0 96 96" xmlns="http://www.w3.org/2000/svg">
  <defs>
    <radialGradient id="bg" cx="38%" cy="26%" r="90%">
      <stop offset="0%" stop-color="#2CA948"/>
      <stop offset="100%" stop-color="#198131"/>
    </radialGradient>
  </defs>
  <rect width="96" height="96" fill="url(#bg)"/>
  <!-- Casa + "?" (rabinho) com traço GROSSO pra ficar legível no favicon -->
  <g fill="none" stroke="#ffffff" stroke-width="8" stroke-linecap="round" stroke-linejoin="round">
    <polyline points="15,43 48,9 81,43"/>
    <path d="M 22 43 L 22 72 Q 22 79 29 79 L 41 79"/>
    <path d="M 74 43 L 74 57 C 74 71 63 76 53 76 C 48 76 46 80 46 83"/>
  </g>
  <!-- Bolinha do "?" -->
  <circle cx="46" cy="90" r="4.6" fill="#ffffff"/>
  <!-- Checklist -->
  <g fill="none" stroke="#ffffff" stroke-width="6.2" stroke-linecap="round" stroke-linejoin="round">
    <polyline points="33,50 37,55 45,45"/>
    <line x1="50" y1="50" x2="67" y2="50"/>
    <line x1="43" y1="61" x2="67" y2="61"/>
    <line x1="43" y1="71" x2="64" y2="71"/>
  </g>
  <circle cx="36" cy="61" r="3" fill="#ffffff"/>
  <circle cx="36" cy="71" r="3" fill="#ffffff"/>
</svg>
