<svg width="96" height="96" viewBox="0 0 96 96" fill="none" xmlns="http://www.w3.org/2000/svg">
  <rect width="96" height="96" rx="22" fill="#16a34a"/>
  <polyline points="19,40 48,12 77,40" stroke="white" stroke-width="5.5" stroke-linejoin="round" stroke-linecap="round"/>
  <path d="M 24 40 L 24 72 Q 24 78 30 78 L 58 78" stroke="white" stroke-width="5.5" stroke-linecap="round" stroke-linejoin="round"/>
  <path d="M 72 40 L 72 60 Q 72 78 58 78 Q 48 78 48 86" stroke="white" stroke-width="5.5" stroke-linecap="round" stroke-linejoin="round"/>
  <circle cx="48" cy="91" r="4" fill="white"/>
  <polyline points="33,50 37,55 44,45" stroke="white" stroke-width="4.5" stroke-linecap="round" stroke-linejoin="round"/>
  <line x1="48" y1="50" x2="65" y2="50" stroke="white" stroke-width="4.5" stroke-linecap="round"/>
  <circle cx="36" cy="61" r="2.5" fill="white"/>
  <line x1="42" y1="61" x2="65" y2="61" stroke="white" stroke-width="4.5" stroke-linecap="round"/>
  <circle cx="36" cy="71" r="2.5" fill="white"/>
  <line x1="42" y1="71" x2="63" y2="71" stroke="white" stroke-width="4.5" stroke-linecap="round"/>
</svg>
